<svg width="24" height="24" viewBox="0 0 24 24" fill="none" xmlns="http://www.w3.org/2000/svg">
    <rect width="24" height="24" rx="12" fill="#2D2A26"/>
    <path d="M17.105 6.892A6.415 6.415 0 0 0 12.526 5C8.96 5 6.052 7.893 6.052 11.441c0 1.138.3 2.243.863 3.218L6 18l3.43-.897a6.501 6.501 0 0 0 3.096.787c3.567 0 6.474-2.893 6.474-6.442a6.385 6.385 0 0 0-1.895-4.556zm-4.579 9.905c-.967 0-1.914-.26-2.744-.747l-.196-.117-2.038.533.542-1.976-.13-.201a5.352 5.352 0 0 1-.823-2.848c0-2.95 2.417-5.355 5.383-5.355a5.34 5.34 0 0 1 3.802 1.573 5.318 5.318 0 0 1 1.574 3.789c.013 2.951-2.404 5.35-5.37 5.35zm2.953-4.004c-.163-.077-.96-.467-1.104-.526-.15-.052-.255-.078-.366.078-.111.162-.418.526-.51.63-.091.111-.189.124-.352.04-.164-.079-.686-.254-1.3-.8-.484-.429-.804-.956-.902-1.118-.091-.162-.013-.247.072-.332.072-.071.163-.188.242-.279.078-.091.11-.163.163-.267.052-.11.026-.201-.013-.279-.04-.078-.366-.871-.496-1.196-.131-.312-.268-.273-.366-.28h-.314a.588.588 0 0 0-.431.202c-.144.163-.562.553-.562 1.345 0 .794.582 1.56.66 1.665.078.11 1.143 1.735 2.763 2.43.386.17.686.267.921.338.386.124.739.104 1.02.065.313-.045.96-.39 1.09-.767.138-.377.138-.695.092-.767-.046-.071-.144-.104-.307-.181z" fill="#fff"/>
</svg>
