<svg width="24" height="24" viewBox="0 0 24 24" fill="none" xmlns="http://www.w3.org/2000/svg">
    <rect width="24" height="24" rx="12" fill="#2D2A26"/>
    <path fill-rule="evenodd" clip-rule="evenodd" d="M15.51 15.99c.33-1.77.98-5.61 1.13-7.19.005-.074.002-.158 0-.231-.003-.065-.005-.12 0-.149a.397.397 0 0 0-.14-.27c-.12-.1-.31-.12-.39-.12-.38 0-.95.2-3.73 1.36-.97.4-2.91 1.24-5.83 2.51-.47.19-.72.37-.74.55-.036.314.354.435.89.6l.19.06c.51.17 1.19.36 1.55.37.32.01.68-.13 1.08-.4 2.73-1.84 4.13-2.77 4.22-2.79a1.16 1.16 0 0 0 .024-.004c.064-.01.133-.02.186.024a.2.2 0 0 1 .05.18c-.04.167-1.662 1.67-2.404 2.358-.192.178-.325.301-.356.332-.077.078-.155.152-.23.224-.483.458-.846.804.01 1.366.423.278.759.507 1.098.739.343.233.69.47 1.132.761.112.074.22.15.325.226.417.297.791.564 1.255.524.26-.03.54-.28.68-1.03z" fill="#fff"/>
</svg>
