<svg width="141" height="26" viewBox="0 0 141 26" fill="none" xmlns="http://www.w3.org/2000/svg">
    <path fill="#fff" d="M.79 0h26v26h-26z"/>
    <circle cx="13.79" cy="13" r="10.168" fill="#2D2A26"/>
    <path d="M43.52 26c4.375 0 7.11-2.081 8.277-3.944l.219 3.725h2.734v-13.84H43.993v2.922h7.658v.876c0 4.528-3.391 7.34-8.095 7.34-5.287 0-8.788-4.163-8.788-10.079s3.5-10.079 8.86-10.079c3.866 0 6.6 2.082 7.476 5.624h3.391C53.62 3.287 49.354 0 43.702 0c-7.402 0-12.18 5.259-12.18 13 0 7.742 4.924 13 11.998 13zM67.333 7.157c-3.318 0-4.74 1.388-5.615 2.812l-.402-2.812h-2.589v18.624h2.99v-9.494c0-2.958 1.058-6.208 4.96-6.208h1.494V7.157h-.838zM86.02 23.043c-.838 0-1.203-.256-1.203-1.242v-8.143c0-4.346-2.735-6.72-7.475-6.72-4.485 0-7.438 2.155-7.876 5.807h2.99c.365-1.9 2.115-3.14 4.74-3.14 2.917 0 4.631 1.46 4.631 3.87v1.278h-5.47c-4.885 0-7.474 2.081-7.474 5.806 0 3.396 2.77 5.441 6.855 5.441 3.209 0 5.068-1.424 6.235-3.104.037 1.826.875 2.885 3.355 2.885h1.64v-2.738h-.948zm-4.193-4.857c0 3.104-2.151 5.258-5.87 5.258-2.48 0-4.048-1.241-4.048-3.067 0-2.118 1.495-3.104 4.157-3.104h5.761v.913zM93.149 25.781h3.61l6.964-18.624h-3.136l-5.579 15.228-5.615-15.228h-3.209l6.965 18.624zM106.94 4.017c1.093 0 1.932-.803 1.932-1.936 0-1.132-.839-1.935-1.932-1.935-1.094 0-1.933.803-1.933 1.935 0 1.133.839 1.936 1.933 1.936zm-1.532 21.764h2.99V7.157h-2.99v18.624zM113.333 20.924c0 3.287 1.276 4.857 4.85 4.857h3.245v-2.738h-2.954c-1.604 0-2.151-.585-2.151-2.155V9.896h4.813V7.157h-4.813V1.935h-2.99v5.222h-3.355v2.74h3.355v11.027zM139.632 23.043c-.839 0-1.203-.256-1.203-1.242v-8.143c0-4.346-2.735-6.72-7.475-6.72-4.485 0-7.439 2.155-7.876 5.807h2.99c.364-1.9 2.115-3.14 4.74-3.14 2.917 0 4.631 1.46 4.631 3.87v1.278h-5.47c-4.886 0-7.475 2.081-7.475 5.806 0 3.396 2.771 5.441 6.855 5.441 3.209 0 5.069-1.424 6.236-3.104.036 1.826.875 2.885 3.354 2.885h1.641v-2.738h-.948zm-4.193-4.857c0 3.104-2.152 5.258-5.871 5.258-2.479 0-4.047-1.241-4.047-3.067 0-2.118 1.495-3.104 4.157-3.104h5.761v.913z" fill="#fff"/>
</svg>
