<svg width="63" height="79" viewBox="0 0 63 79" fill="none" xmlns="http://www.w3.org/2000/svg">
    <path fill-rule="evenodd" clip-rule="evenodd" d="M41.715 61.307C54.098 57.064 63 45.32 63 31.5 63 14.103 48.897 0 31.5 0S0 14.103 0 31.5c0 13.822 8.902 25.564 21.285 29.807L31.5 79l10.215-17.693z" fill="#2D2A26"/>
    <path d="M25 22l-3 4v14a2 2 0 0 0 2 2h14a2 2 0 0 0 2-2V26l-3-4H25zM35 30a4 4 0 1 1-8 0M22 26h18" stroke="#fff" stroke-width="1.5" stroke-linecap="round" stroke-linejoin="round"/>
</svg>
