<svg width="24" height="24" viewBox="0 0 24 24" fill="none" xmlns="http://www.w3.org/2000/svg">
    <rect width="24" height="24" rx="12" fill="#2D2A26"/>
    <path d="M11.99 11.722c-1.956 0-3.583-1.525-3.583-3.33C8.407 6.526 10.034 5 11.991 5c2.024 0 3.583 1.525 3.583 3.392a3.243 3.243 0 0 1-1.051 2.36 3.686 3.686 0 0 1-2.52.97h-.013zm0-4.76c-.828 0-1.458.652-1.458 1.431 0 .777.63 1.369 1.46 1.369.861 0 1.459-.592 1.459-1.369 0-.78-.598-1.432-1.46-1.432zm1.427 7.53l2.025 1.836c.398.404.398.995 0 1.37-.43.403-1.095.403-1.427 0l-2.024-1.868-1.957 1.867a1.09 1.09 0 0 1-.764.28c-.232 0-.498-.094-.73-.28-.399-.373-.399-.965 0-1.37l2.057-1.836a9.67 9.67 0 0 1-2.122-.87c-.498-.249-.597-.871-.332-1.338.332-.467.93-.591 1.46-.28.72.412 1.546.63 2.39.63.842 0 1.668-.218 2.388-.63.531-.311 1.16-.187 1.46.28.299.467.165 1.088-.3 1.338-.63.374-1.36.654-2.123.872z" fill="#fff"/>
</svg>
