<svg xmlns="http://www.w3.org/2000/svg"><symbol id="arrow-bottom-right" viewBox="0 0 23 23">
    <path fill-rule="evenodd" clip-rule="evenodd" d="M20.824 2v18.824H2v-1.5h16.264L3.434 4.494l1.06-1.06 14.83 14.83V2h1.5z"/>
</symbol><symbol id="arrow-drop-down" viewBox="0 0 17 16">
    <path d="M8.207 11l-5-5h10l-5 5z"/>
</symbol><symbol id="arrow-left-long" viewBox="0 0 23 14">
    <path d="M23 7H2m0 0l6 6M2 7l6-6" stroke-width="2"/>
</symbol><symbol id="arrow-left" viewBox="0 0 22 25">
    <path d="M21.672 12.26H2.026m0 0l11.02 11.021m-11.02-11.02L13.046 1.24" stroke-width="2"/>
</symbol><symbol id="arrow-right-long" viewBox="0 0 23 14">
    <path d="M0 7h21m0 0l-6-6m6 6l-6 6" stroke-width="2"/>
</symbol><symbol id="arrow-right" viewBox="0 0 22 25">
    <path d="M.328 12.74h19.646m0 0L8.954 1.718m11.02 11.02L8.954 23.76" stroke-width="2"/>
</symbol><symbol id="arrow-up-long" viewBox="0 0 18 46">
    <path d="M8.916 46V1.89m0 0L1 9.805M8.916 1.89l7.915 7.915" stroke-width="1.5"/>
</symbol><symbol id="cart" viewBox="0 0 20 20">
    <g opacity=".8" stroke-width="1.5" stroke-linecap="round" stroke-linejoin="round">
        <path d="M16.38 19.002a.81.81 0 1 0 0-1.62.81.81 0 0 0 0 1.62zM7.481 19.002a.81.81 0 1 0 0-1.62.81.81 0 0 0 0 1.62z"/>
        <path d="M1 2h3.238l2.17 10.84a1.62 1.62 0 0 0 1.619 1.303h7.868a1.62 1.62 0 0 0 1.62-1.304l1.294-6.791H5.049"/>
    </g>
</symbol><symbol id="chevron" viewBox="0 0 12 13">
    <path d="M10.8 4.7L6 9.5 1.2 4.7"/>
</symbol><symbol id="close" viewBox="0 0 30 30">
    <path stroke-width="1.5" d="M6.389 5.654L24.836 24.1M5.698 24.1L24.144 5.654"/>
</symbol><symbol id="copy" viewBox="0 0 18 22">
    <rect x="2" y="2" width="10" height="14" rx="2" stroke-width="1.5"/>
    <path d="M14.501 6.402a2.999 2.999 0 0 1 1.5 2.599v8a3 3 0 0 1-3 3h-4c-1.11 0-2.08-.603-2.599-1.5" stroke-width="1.5" stroke-linecap="round"/>
</symbol><symbol id="icon-close" viewBox="0 0 19 19">
    <path d="M18.58.435a1.436 1.436 0 0 0-2.033 0L9.5 7.468 2.453.421A1.437 1.437 0 1 0 .42 2.453L7.468 9.5.421 16.547a1.437 1.437 0 1 0 2.032 2.032L9.5 11.532l7.047 7.047a1.437 1.437 0 0 0 2.032-2.032L11.532 9.5l7.047-7.047a1.444 1.444 0 0 0 0-2.018z"/>
</symbol><symbol id="logo-omni" viewBox="0 0 32 13">
    <g>
        <path d="M9.012 4.635c0 .932-.17 1.733-.51 2.404-.342.667-.81 1.182-1.403 1.542-.59.358-1.263.537-2.016.537-.755 0-1.43-.179-2.024-.537-.59-.36-1.057-.876-1.397-1.547-.341-.67-.512-1.47-.512-2.399 0-.932.17-1.731.512-2.399.34-.67.806-1.185 1.397-1.542C3.653.333 4.328.152 5.083.152c.753 0 1.425.18 2.016.542.594.357 1.061.872 1.402 1.542.341.668.511 1.467.511 2.4zm-1.304 0c0-.71-.115-1.308-.345-1.794-.227-.488-.54-.858-.937-1.108a2.436 2.436 0 0 0-1.343-.379c-.502 0-.951.126-1.346.38-.395.25-.708.619-.938 1.107-.227.486-.34 1.084-.34 1.794s.113 1.31.34 1.799c.23.485.543.855.938 1.108.395.25.844.375 1.346.375.5 0 .948-.125 1.343-.375.398-.253.71-.623.937-1.108.23-.489.345-1.088.345-1.799zM10.174.272h1.598l2.778 6.784h.103L17.43.272h1.598v8.727h-1.253V2.684h-.08l-2.574 6.302h-1.04L11.508 2.68h-.081V9h-1.253V.272zM27.508.272v8.727h-1.21l-4.437-6.4h-.08v6.4h-1.317V.272h1.218l4.44 6.409h.082V.27h1.304zM30.265.272v8.727h-1.317V.272h1.317zM.473 11.385h30.751v.819H.473v-.819z"/>
    </g>
</symbol><symbol id="minus" viewBox="0 0 13 1">
    <path d="M0 .5h13"/>
</symbol><symbol id="plus" viewBox="0 0 13 14">
    <path d="M0 7h13M6.5.5v13"/>
</symbol><symbol id="search" viewBox="0 0 20 20">
    <g opacity=".8" stroke-width="1.5" stroke-linejoin="round">
        <path d="M9.222 15.944a6.222 6.222 0 1 0 0-12.444 6.222 6.222 0 0 0 0 12.444z" stroke-linecap="round"/>
        <path d="M16.993 17.5l-3.384-3.383" stroke-linecap="square"/>
    </g>
</symbol><symbol id="share" viewBox="0 0 21 22">
    <circle cx="6" cy="11" r="5.25" stroke-width="1.5"/>
    <circle cx="17" cy="4" r="3.25" stroke-width="1.5"/>
    <circle cx="17" cy="18" r="3.25" stroke-width="1.5"/>
    <path d="M14 6l-3.5 2.5M14.002 16.5l-4-2.5" stroke-width="1.5"/>
</symbol></svg>