<svg width="24" height="24" viewBox="0 0 24 24" fill="none" xmlns="http://www.w3.org/2000/svg">
    <rect width="24" height="24" rx="12" fill="#2D2A26"/>
    <path d="M8.998 8.045a.575.575 0 0 0-.376.074h-.01a2.874 2.874 0 0 0-.7.576c-.168.193-.259.39-.282.578a.796.796 0 0 0 .028.333l.013.007c.189.555.435 1.088.736 1.59a9.358 9.358 0 0 0 1.42 1.942l.017.024.027.02.016.019.02.016a9.492 9.492 0 0 0 1.946 1.428c.808.44 1.299.648 1.593.734v.005a.809.809 0 0 0 .244.038c.25-.018.488-.12.674-.29.227-.201.42-.438.57-.702v-.005c.14-.266.093-.516-.11-.686a8.484 8.484 0 0 0-1.316-.945c-.314-.17-.632-.067-.76.105l-.276.347c-.141.172-.397.148-.397.148l-.007.005c-1.911-.488-2.421-2.423-2.421-2.423s-.024-.263.153-.397l.344-.277c.165-.134.28-.452.103-.766a8.262 8.262 0 0 0-.942-1.315.523.523 0 0 0-.308-.184h.001zm3.23-.841a.35.35 0 1 0 0 .7c.884 0 1.618.288 2.2.842a3.1 3.1 0 0 1 .684 1.056c.153.393.223.814.205 1.235a.35.35 0 1 0 .7.03 3.75 3.75 0 0 0-.253-1.519 3.808 3.808 0 0 0-.842-1.297l-.007-.007c-.722-.69-1.634-1.04-2.688-1.04z" fill="#fff"/>
    <path d="M12.205 8.354a.35.35 0 1 0 0 .7h.012c.638.045 1.103.258 1.428.607.334.36.507.806.493 1.36a.35.35 0 1 0 .7.015c.017-.725-.217-1.351-.68-1.851v-.001c-.474-.508-1.124-.777-1.906-.83l-.012-.001h-.035z" fill="#fff"/>
    <path d="M12.188 9.526a.35.35 0 1 0-.037.698c.293.015.48.104.597.222.118.119.207.31.223.609a.351.351 0 0 0 .368.342.35.35 0 0 0 .33-.38c-.023-.42-.154-.79-.423-1.063-.271-.273-.64-.406-1.058-.428z" fill="#fff"/>
    <path fill-rule="evenodd" clip-rule="evenodd" d="M8.37 5.373a15.498 15.498 0 0 1 6.762 0l.238.053a3.607 3.607 0 0 1 2.709 2.633c.565 2.227.565 4.56 0 6.787a3.606 3.606 0 0 1-2.71 2.632l-.237.053c-1.395.312-2.826.43-4.252.349l-1.857 1.661a.525.525 0 0 1-.867-.304l-.307-1.835a3.607 3.607 0 0 1-2.425-2.557 13.796 13.796 0 0 1 0-6.786 3.607 3.607 0 0 1 2.71-2.633l.237-.053zm6.534 1.024a14.448 14.448 0 0 0-6.305 0l-.238.053a2.557 2.557 0 0 0-1.92 1.867 12.746 12.746 0 0 0 0 6.27 2.558 2.558 0 0 0 1.921 1.867l.063.014a.525.525 0 0 1 .403.425l.206 1.23 1.31-1.171a.525.525 0 0 1 .387-.133c1.398.099 2.804-.006 4.172-.312l.238-.053a2.557 2.557 0 0 0 1.92-1.867 12.75 12.75 0 0 0 0-6.27 2.557 2.557 0 0 0-1.92-1.867l-.238-.053z" fill="#fff"/>
</svg>
